<mxfile host="app.diagrams.net" agent="Mozilla/5.0 (Windows NT 10.0; Win64; x64) AppleWebKit/537.36 (KHTML, like Gecko) Chrome/138.0.0.0 Safari/537.36 Edg/138.0.0.0" version="28.0.4">
  <diagram name="Page-1" id="i2QwugJ0FT2ddZvwvPsL">
    <mxGraphModel dx="2219" dy="688" grid="1" gridSize="10" guides="1" tooltips="1" connect="1" arrows="1" fold="1" page="1" pageScale="1" pageWidth="850" pageHeight="1100" math="0" shadow="0">
      <root>
        <mxCell id="0" />
        <mxCell id="1" parent="0" />
        <mxCell id="DtITDIv0u5kT3XAjdiBb-1" value="VPC A" style="sketch=0;outlineConnect=0;gradientColor=none;html=1;whiteSpace=wrap;fontSize=12;fontStyle=0;shape=mxgraph.aws4.group;grIcon=mxgraph.aws4.group_vpc;strokeColor=#879196;fillColor=none;verticalAlign=top;align=left;spacingLeft=30;fontColor=#879196;dashed=0;" vertex="1" parent="1">
          <mxGeometry x="110" y="81.5" width="270" height="250" as="geometry" />
        </mxCell>
        <mxCell id="DtITDIv0u5kT3XAjdiBb-3" value="Subnet" style="sketch=0;outlineConnect=0;gradientColor=none;html=1;whiteSpace=wrap;fontSize=12;fontStyle=0;shape=mxgraph.aws4.group;grIcon=mxgraph.aws4.group_subnet;strokeColor=#879196;fillColor=none;verticalAlign=top;align=left;spacingLeft=30;fontColor=#879196;dashed=0;" vertex="1" parent="1">
          <mxGeometry x="155" y="156.5" width="160" height="140" as="geometry" />
        </mxCell>
        <mxCell id="DtITDIv0u5kT3XAjdiBb-4" value="VPC B" style="sketch=0;outlineConnect=0;gradientColor=none;html=1;whiteSpace=wrap;fontSize=12;fontStyle=0;shape=mxgraph.aws4.group;grIcon=mxgraph.aws4.group_vpc;strokeColor=#879196;fillColor=none;verticalAlign=top;align=left;spacingLeft=30;fontColor=#879196;dashed=0;" vertex="1" parent="1">
          <mxGeometry x="560" y="89" width="440" height="421" as="geometry" />
        </mxCell>
        <mxCell id="DtITDIv0u5kT3XAjdiBb-36" style="edgeStyle=orthogonalEdgeStyle;rounded=0;orthogonalLoop=1;jettySize=auto;html=1;" edge="1" parent="1" source="DtITDIv0u5kT3XAjdiBb-6" target="DtITDIv0u5kT3XAjdiBb-35">
          <mxGeometry relative="1" as="geometry" />
        </mxCell>
        <mxCell id="DtITDIv0u5kT3XAjdiBb-6" value="S3 Bucket" style="outlineConnect=0;dashed=0;verticalLabelPosition=bottom;verticalAlign=top;align=center;html=1;shape=mxgraph.aws3.s3;fillColor=#E05243;gradientColor=none;" vertex="1" parent="1">
          <mxGeometry x="640" y="160" width="76.5" height="93" as="geometry" />
        </mxCell>
        <mxCell id="DtITDIv0u5kT3XAjdiBb-8" style="edgeStyle=orthogonalEdgeStyle;rounded=0;orthogonalLoop=1;jettySize=auto;html=1;" edge="1" parent="1" source="DtITDIv0u5kT3XAjdiBb-7" target="DtITDIv0u5kT3XAjdiBb-1">
          <mxGeometry relative="1" as="geometry" />
        </mxCell>
        <mxCell id="DtITDIv0u5kT3XAjdiBb-9" style="edgeStyle=orthogonalEdgeStyle;rounded=0;orthogonalLoop=1;jettySize=auto;html=1;" edge="1" parent="1" source="DtITDIv0u5kT3XAjdiBb-7" target="DtITDIv0u5kT3XAjdiBb-4">
          <mxGeometry relative="1" as="geometry" />
        </mxCell>
        <mxCell id="DtITDIv0u5kT3XAjdiBb-7" value="TGW" style="sketch=0;points=[[0,0,0],[0.25,0,0],[0.5,0,0],[0.75,0,0],[1,0,0],[0,1,0],[0.25,1,0],[0.5,1,0],[0.75,1,0],[1,1,0],[0,0.25,0],[0,0.5,0],[0,0.75,0],[1,0.25,0],[1,0.5,0],[1,0.75,0]];outlineConnect=0;fontColor=#232F3E;fillColor=#8C4FFF;strokeColor=#ffffff;dashed=0;verticalLabelPosition=bottom;verticalAlign=top;align=center;html=1;fontSize=12;fontStyle=0;aspect=fixed;shape=mxgraph.aws4.resourceIcon;resIcon=mxgraph.aws4.transit_gateway;" vertex="1" parent="1">
          <mxGeometry x="425" y="180" width="78" height="78" as="geometry" />
        </mxCell>
        <mxCell id="DtITDIv0u5kT3XAjdiBb-13" value="API GW" style="outlineConnect=0;dashed=0;verticalLabelPosition=bottom;verticalAlign=top;align=center;html=1;shape=mxgraph.aws3.api_gateway;fillColor=#D9A741;gradientColor=none;" vertex="1" parent="1">
          <mxGeometry x="20" y="180" width="76.5" height="93" as="geometry" />
        </mxCell>
        <mxCell id="DtITDIv0u5kT3XAjdiBb-14" value="S3AccessRole&lt;div&gt;Assumed&lt;/div&gt;" style="sketch=0;outlineConnect=0;fontColor=#232F3E;gradientColor=none;fillColor=#DD344C;strokeColor=none;dashed=0;verticalLabelPosition=bottom;verticalAlign=top;align=center;html=1;fontSize=12;fontStyle=0;aspect=fixed;pointerEvents=1;shape=mxgraph.aws4.role;" vertex="1" parent="1">
          <mxGeometry x="273.25" y="197" width="78" height="44" as="geometry" />
        </mxCell>
        <mxCell id="DtITDIv0u5kT3XAjdiBb-15" value="" style="endArrow=none;dashed=1;html=1;dashPattern=1 3;strokeWidth=2;rounded=0;" edge="1" parent="1" source="DtITDIv0u5kT3XAjdiBb-14" target="DtITDIv0u5kT3XAjdiBb-6">
          <mxGeometry width="50" height="50" relative="1" as="geometry">
            <mxPoint x="480" y="210" as="sourcePoint" />
            <mxPoint x="530" y="160" as="targetPoint" />
            <Array as="points">
              <mxPoint x="440" y="110" />
            </Array>
          </mxGeometry>
        </mxCell>
        <mxCell id="DtITDIv0u5kT3XAjdiBb-18" value="Uploading Service" style="outlineConnect=0;dashed=0;verticalLabelPosition=bottom;verticalAlign=top;align=center;html=1;shape=mxgraph.aws3.lambda_function;fillColor=#F58534;gradientColor=none;" vertex="1" parent="1">
          <mxGeometry x="200.5" y="190.5" width="69" height="72" as="geometry" />
        </mxCell>
        <mxCell id="DtITDIv0u5kT3XAjdiBb-26" style="edgeStyle=orthogonalEdgeStyle;rounded=0;orthogonalLoop=1;jettySize=auto;html=1;" edge="1" parent="1" source="DtITDIv0u5kT3XAjdiBb-19" target="DtITDIv0u5kT3XAjdiBb-13">
          <mxGeometry relative="1" as="geometry" />
        </mxCell>
        <mxCell id="DtITDIv0u5kT3XAjdiBb-19" value="" style="shape=actor;whiteSpace=wrap;html=1;" vertex="1" parent="1">
          <mxGeometry x="-80" y="197" width="40" height="60" as="geometry" />
        </mxCell>
        <mxCell id="DtITDIv0u5kT3XAjdiBb-27" style="edgeStyle=orthogonalEdgeStyle;rounded=0;orthogonalLoop=1;jettySize=auto;html=1;entryX=0;entryY=0.5;entryDx=0;entryDy=0;entryPerimeter=0;" edge="1" parent="1" source="DtITDIv0u5kT3XAjdiBb-13" target="DtITDIv0u5kT3XAjdiBb-18">
          <mxGeometry relative="1" as="geometry" />
        </mxCell>
        <mxCell id="DtITDIv0u5kT3XAjdiBb-30" style="edgeStyle=orthogonalEdgeStyle;rounded=0;orthogonalLoop=1;jettySize=auto;html=1;" edge="1" parent="1" source="DtITDIv0u5kT3XAjdiBb-28" target="DtITDIv0u5kT3XAjdiBb-29">
          <mxGeometry relative="1" as="geometry">
            <Array as="points">
              <mxPoint x="929" y="270" />
              <mxPoint x="788" y="270" />
            </Array>
          </mxGeometry>
        </mxCell>
        <mxCell id="DtITDIv0u5kT3XAjdiBb-28" value="Macie" style="sketch=0;points=[[0,0,0],[0.25,0,0],[0.5,0,0],[0.75,0,0],[1,0,0],[0,1,0],[0.25,1,0],[0.5,1,0],[0.75,1,0],[1,1,0],[0,0.25,0],[0,0.5,0],[0,0.75,0],[1,0.25,0],[1,0.5,0],[1,0.75,0]];outlineConnect=0;fontColor=#232F3E;fillColor=#DD344C;strokeColor=#ffffff;dashed=0;verticalLabelPosition=bottom;verticalAlign=top;align=center;html=1;fontSize=12;fontStyle=0;aspect=fixed;shape=mxgraph.aws4.resourceIcon;resIcon=mxgraph.aws4.macie;" vertex="1" parent="1">
          <mxGeometry x="890" y="160" width="78" height="78" as="geometry" />
        </mxCell>
        <mxCell id="DtITDIv0u5kT3XAjdiBb-33" style="edgeStyle=orthogonalEdgeStyle;rounded=0;orthogonalLoop=1;jettySize=auto;html=1;" edge="1" parent="1" source="DtITDIv0u5kT3XAjdiBb-29" target="DtITDIv0u5kT3XAjdiBb-32">
          <mxGeometry relative="1" as="geometry" />
        </mxCell>
        <mxCell id="DtITDIv0u5kT3XAjdiBb-29" value="Redacting Service" style="outlineConnect=0;dashed=0;verticalLabelPosition=bottom;verticalAlign=top;align=center;html=1;shape=mxgraph.aws3.lambda;fillColor=#F58534;gradientColor=none;" vertex="1" parent="1">
          <mxGeometry x="750" y="296.5" width="76.5" height="93" as="geometry" />
        </mxCell>
        <mxCell id="DtITDIv0u5kT3XAjdiBb-31" style="edgeStyle=orthogonalEdgeStyle;rounded=0;orthogonalLoop=1;jettySize=auto;html=1;entryX=0.5;entryY=1;entryDx=0;entryDy=0;entryPerimeter=0;" edge="1" parent="1" source="DtITDIv0u5kT3XAjdiBb-29" target="DtITDIv0u5kT3XAjdiBb-6">
          <mxGeometry relative="1" as="geometry" />
        </mxCell>
        <mxCell id="DtITDIv0u5kT3XAjdiBb-34" style="edgeStyle=orthogonalEdgeStyle;rounded=0;orthogonalLoop=1;jettySize=auto;html=1;" edge="1" parent="1" source="DtITDIv0u5kT3XAjdiBb-32">
          <mxGeometry relative="1" as="geometry">
            <mxPoint x="-64.4307861328125" y="260" as="targetPoint" />
          </mxGeometry>
        </mxCell>
        <mxCell id="DtITDIv0u5kT3XAjdiBb-32" value="SNS" style="outlineConnect=0;dashed=0;verticalLabelPosition=bottom;verticalAlign=top;align=center;html=1;shape=mxgraph.aws3.sns;fillColor=#D9A741;gradientColor=none;" vertex="1" parent="1">
          <mxGeometry x="600" y="370" width="76.5" height="76.5" as="geometry" />
        </mxCell>
        <mxCell id="DtITDIv0u5kT3XAjdiBb-35" value="EventBridge" style="sketch=0;points=[[0,0,0],[0.25,0,0],[0.5,0,0],[0.75,0,0],[1,0,0],[0,1,0],[0.25,1,0],[0.5,1,0],[0.75,1,0],[1,1,0],[0,0.25,0],[0,0.5,0],[0,0.75,0],[1,0.25,0],[1,0.5,0],[1,0.75,0]];outlineConnect=0;fontColor=#232F3E;fillColor=#E7157B;strokeColor=#ffffff;dashed=0;verticalLabelPosition=bottom;verticalAlign=top;align=center;html=1;fontSize=12;fontStyle=0;aspect=fixed;shape=mxgraph.aws4.resourceIcon;resIcon=mxgraph.aws4.eventbridge;" vertex="1" parent="1">
          <mxGeometry x="770" y="140" width="78" height="78" as="geometry" />
        </mxCell>
        <mxCell id="DtITDIv0u5kT3XAjdiBb-37" style="edgeStyle=orthogonalEdgeStyle;rounded=0;orthogonalLoop=1;jettySize=auto;html=1;entryX=0;entryY=0.5;entryDx=0;entryDy=0;entryPerimeter=0;" edge="1" parent="1" source="DtITDIv0u5kT3XAjdiBb-35" target="DtITDIv0u5kT3XAjdiBb-28">
          <mxGeometry relative="1" as="geometry" />
        </mxCell>
      </root>
    </mxGraphModel>
  </diagram>
</mxfile>
